StickNoBills-latin-0.ufo
<glyph name="quotesingle" format="1">
  <advance width="120"/>
  <unicode hex="0027"/>
  <outline>
    <contour>
      <point x="40" y="465" type="line"/>
      <point x="40" y="736" type="line"/>
      <point x="80" y="736" type="line"/>
      <point x="80" y="465" type="line"/>
    </contour>
  </outline>
</glyph>
<glyph name="five" format="1">
  <advance width="520"/>
  <unicode hex="0035"/>
  <outline>
    <contour>
      <point x="40" y="354" type="line"/>
      <point x="69" y="700" type="line"/>
      <point x="423" y="700" type="line"/>
      <point x="423" y="662" type="line"/>
      <point x="105" y="661" type="line"/>
      <point x="84" y="398" type="line"/>
      <point x="112" y="420"/>
      <point x="157" y="447"/>
      <point x="222" y="447" type="curve"/>
      <point x="222" y="409" type="line"/>
      <point x="170" y="409"/>
      <point x="121" y="386"/>
      <point x="79" y="330" type="curve"/>
    </contour>
    <contour>
      <point x="267" y="0" type="curve"/>
      <point x="267" y="38" type="line"/>
      <point x="331" y="38"/>
      <point x="441" y="96"/>
      <point x="441" y="224" type="curve" smooth="yes"/>
      <point x="441" y="366"/>
      <point x="331" y="409"/>
      <point x="267" y="409" type="curve"/>
      <point x="267" y="447" type="line"/>
      <point x="415" y="447"/>
      <point x="480" y="333"/>
      <point x="480" y="223" type="curve" smooth="yes"/>
      <point x="480" y="78"/>
      <point x="372" y="2"/>
    </contour>
    <contour>
      <point x="42" y="107" type="curve"/>
      <point x="75" y="129" type="line"/>
      <point x="110" y="68"/>
      <point x="148" y="44"/>
      <point x="222" y="38" type="curve"/>
      <point x="222" y="0" type="line"/>
      <point x="138" y="0"/>
      <point x="74" y="46"/>
    </contour>
  </outline>
</glyph>
<glyph name="six" format="1">
  <advance width="534"/>
  <unicode hex="0036"/>
  <outline>
    <contour>
      <point x="247" y="-1" type="line"/>
      <point x="73" y="6"/>
      <point x="40" y="172.997"/>
      <point x="40" y="349" type="curve" smooth="yes"/>
      <point x="40" y="466"/>
      <point x="70" y="679"/>
      <point x="247" y="697" type="curve"/>
      <point x="247" y="659" type="line"/>
      <point x="96" y="635"/>
      <point x="80" y="448"/>
      <point x="80" y="324" type="curve"/>
      <point x="116" y="399"/>
      <point x="186" y="425"/>
      <point x="247" y="425" type="curve"/>
      <point x="247" y="387" type="line"/>
      <point x="147" y="387"/>
      <point x="94" y="304"/>
      <point x="94" y="211" type="curve" smooth="yes"/>
      <point x="94" y="164"/>
      <point x="126" y="37"/>
      <point x="247" y="37" type="curve"/>
    </contour>
    <contour>
      <point x="302" y="-1" type="curve"/>
      <point x="302" y="37" type="line"/>
      <point x="400" y="37"/>
      <point x="455" y="136"/>
      <point x="455" y="211" type="curve" smooth="yes"/>
      <point x="455" y="335"/>
      <point x="373" y="389"/>
      <point x="302" y="389" type="curve"/>
      <point x="302" y="425" type="line"/>
      <point x="426" y="425"/>
      <point x="494" y="330"/>
      <point x="494" y="212" type="curve" smooth="yes"/>
      <point x="494" y="87"/>
      <point x="403" y="0"/>
    </contour>
    <contour>
      <point x="434" y="572" type="line"/>
      <point x="417" y="607"/>
      <point x="378" y="660"/>
      <point x="301" y="660" type="curve"/>
      <point x="301" y="698" type="line"/>
      <point x="379" y="698"/>
      <point x="440" y="651"/>
      <point x="467" y="594" type="curve"/>
    </contour>
  </outline>
</glyph>
<glyph name="eight" format="1">
  <advance width="519"/>
  <unicode hex="0038"/>
  <outline>
    <contour>
      <point x="232" y="0" type="line"/>
      <point x="109.573" y="0"/>
      <point x="40.0498" y="97.2627"/>
      <point x="40.0498" y="193.787" type="curve" smooth="yes"/>
      <point x="40.0498" y="253.568"/>
      <point x="55.7178" y="310.066"/>
      <point x="124" y="349" type="curve"/>
      <point x="68.7178" y="385.244"/>
      <point x="44.0527" y="441.728"/>
      <point x="44.0527" y="498.773" type="curve" smooth="yes"/>
      <point x="44.0527" y="597.544"/>
      <point x="117.999" y="698"/>
      <point x="235" y="698" type="curve"/>
      <point x="235" y="660" type="line"/>
      <point x="131" y="656"/>
      <point x="85" y="572"/>
      <point x="85" y="501" type="curve" smooth="yes"/>
      <point x="85" y="434"/>
      <point x="128" y="368"/>
      <point x="234" y="368" type="curve"/>
      <point x="234" y="330" type="line"/>
      <point x="169" y="330"/>
      <point x="79" y="308"/>
      <point x="79" y="199" type="curve" smooth="yes"/>
      <point x="79" y="90"/>
      <point x="153" y="42"/>
      <point x="232" y="38" type="curve"/>
    </contour>
    <contour>
      <point x="287" y="0" type="curve"/>
      <point x="287" y="38" type="line"/>
      <point x="366" y="42"/>
      <point x="440" y="90"/>
      <point x="440" y="199" type="curve" smooth="yes"/>
      <point x="440" y="308"/>
      <point x="350" y="330"/>
      <point x="285" y="330" type="curve"/>
      <point x="285" y="368" type="line"/>
      <point x="391" y="368"/>
      <point x="434" y="434"/>
      <point x="434" y="501" type="curve" smooth="yes"/>
      <point x="434" y="572"/>
      <point x="388" y="656"/>
      <point x="284" y="660" type="curve"/>
      <point x="284" y="698" type="line"/>
      <point x="401.001" y="698"/>
      <point x="474.947" y="597.544"/>
      <point x="474.947" y="498.772" type="curve" smooth="yes"/>
      <point x="474.947" y="441.728"/>
      <point x="450.282" y="385.244"/>
      <point x="395" y="349" type="curve"/>
      <point x="463.283" y="310.066"/>
      <point x="478.95" y="253.568"/>
      <point x="478.95" y="193.787" type="curve" smooth="yes"/>
      <point x="478.95" y="97.2627"/>
      <point x="409.427" y="0"/>
    </contour>
  </outline>
</glyph>
<glyph name="nine" format="1">
  <advance width="531"/>
  <unicode hex="0039"/>
  <outline>
    <contour>
      <point x="281" y="2" type="curve"/>
      <point x="281" y="41" type="line"/>
      <point x="344" y="41"/>
      <point x="451" y="103"/>
      <point x="451" y="366" type="curve"/>
      <point x="437" y="348"/>
      <point x="411" y="274"/>
      <point x="281" y="274" type="curve"/>
      <point x="281" y="314" type="line"/>
      <point x="382" y="314"/>
      <point x="435" y="380"/>
      <point x="435" y="490" type="curve" smooth="yes"/>
      <point x="435" y="551"/>
      <point x="389" y="659"/>
      <point x="281" y="660" type="curve"/>
      <point x="281" y="700" type="line"/>
      <point x="456" y="700"/>
      <point x="491" y="529"/>
      <point x="491" y="341" type="curve" smooth="yes"/>
      <point x="491" y="233"/>
      <point x="458" y="0"/>
    </contour>
    <contour>
      <point x="237" y="274" type="line"/>
      <point x="108" y="274"/>
      <point x="40" y="359"/>
      <point x="40" y="485" type="curve" smooth="yes"/>
      <point x="40" y="610"/>
      <point x="136" y="699"/>
      <point x="237" y="700" type="curve"/>
      <point x="237" y="660" type="line"/>
      <point x="125" y="658"/>
      <point x="78" y="550"/>
      <point x="78" y="485" type="curve" smooth="yes"/>
      <point x="78" y="380"/>
      <point x="138" y="314"/>
      <point x="237" y="314" type="curve"/>
    </contour>
    <contour>
      <point x="57" y="115" type="curve"/>
      <point x="90" y="136" type="line"/>
      <point x="116" y="83"/>
      <point x="174" y="41"/>
      <point x="237" y="41" type="curve"/>
      <point x="237" y="1" type="line"/>
      <point x="159" y="1"/>
      <point x="90" y="51"/>
    </contour>
  </outline>
</glyph>
<glyph name="E" format="1">
  <advance width="444"/>
  <unicode hex="0045"/>
  <outline>
    <contour>
      <point x="40" y="0" type="line"/>
      <point x="40" y="700" type="line"/>
      <point x="404" y="700" type="line"/>
      <point x="404" y="662" type="line"/>
      <point x="80" y="662" type="line"/>
      <point x="80" y="368" type="line"/>
      <point x="310" y="368" type="line"/>
      <point x="310" y="330" type="line"/>
      <point x="80" y="330" type="line"/>
      <point x="80" y="38" type="line"/>
      <point x="404" y="38" type="line"/>
      <point x="404" y="0" type="line"/>
    </contour>
  </outline>
</glyph>
<glyph name="J" format="1">
  <advance width="497"/>
  <unicode hex="004A"/>
  <outline>
    <contour>
      <point x="20" y="193" type="curve"/>
      <point x="20" y="242" type="line"/>
      <point x="60" y="242" type="line"/>
      <point x="60" y="200" type="line" smooth="yes"/>
      <point x="60" y="86"/>
      <point x="160" y="33"/>
      <point x="211" y="33" type="curve"/>
      <point x="211" y="-5" type="line"/>
      <point x="151" y="-5"/>
      <point x="20" y="54"/>
    </contour>
    <contour>
      <point x="257" y="-5" type="curve"/>
      <point x="257" y="33" type="line"/>
      <point x="300" y="33"/>
      <point x="417" y="84"/>
      <point x="417" y="193" type="curve" smooth="yes"/>
      <point x="417" y="700" type="line"/>
      <point x="457" y="700" type="line"/>
      <point x="457" y="193" type="line"/>
      <point x="457" y="49"/>
      <point x="317" y="-5"/>
    </contour>
  </outline>
</glyph>
<glyph name="bracketleft" format="1">
  <advance width="180"/>
  <unicode hex="005B"/>
  <outline>
    <contour>
      <point x="50" y="-36" type="line"/>
      <point x="50" y="739" type="line"/>
      <point x="130" y="739" type="line"/>
      <point x="130" y="701" type="line"/>
      <point x="91" y="701" type="line"/>
      <point x="88" y="2" type="line"/>
      <point x="130" y="2" type="line"/>
      <point x="130" y="-36" type="line"/>
    </contour>
  </outline>
</glyph>
<glyph name="grave" format="1">
  <advance width="157"/>
  <unicode hex="0060"/>
  <outline>
    <contour>
      <point x="40" y="757" type="line"/>
      <point x="80" y="757" type="line"/>
      <point x="117" y="605" type="line"/>
      <point x="88" y="605" type="line"/>
    </contour>
  </outline>
</glyph>
<glyph name="a" format="1">
  <advance width="464"/>
  <unicode hex="0061"/>
  <outline>
    <contour>
      <point x="40" y="121" type="curve" smooth="yes"/>
      <point x="40" y="167" type="line" smooth="yes"/>
      <point x="40" y="200"/>
      <point x="46.0283" y="234.786"/>
      <point x="89" y="257" type="curve" smooth="yes"/>
      <point x="140.849" y="283.802"/>
      <point x="357.124" y="308.114"/>
      <point x="357" y="347.472" type="curve"/>
      <point x="357" y="363" type="line" smooth="yes"/>
      <point x="357" y="441"/>
      <point x="290" y="483"/>
      <point x="241" y="483" type="curve"/>
      <point x="241" y="519" type="line"/>
      <point x="348" y="519"/>
      <point x="398" y="432"/>
      <point x="398" y="361" type="curve" smooth="yes"/>
      <point x="398" y="74" type="line" smooth="yes"/>
      <point x="398" y="66.4805"/>
      <point x="400.609" y="40"/>
      <point x="424" y="40" type="curve"/>
      <point x="424" y="1" type="line"/>
      <point x="384.827" y="1"/>
      <point x="370.771" y="18.7793"/>
      <point x="358" y="39" type="curve"/>
      <point x="333" y="14"/>
      <point x="281" y="1"/>
      <point x="241" y="1" type="curve"/>
      <point x="241" y="39" type="line"/>
      <point x="293" y="39"/>
      <point x="358" y="56"/>
      <point x="358" y="149" type="curve" smooth="yes"/>
      <point x="358" y="292" type="line"/>
      <point x="294" y="258.386"/>
      <point x="126.016" y="245.761"/>
      <point x="92" y="210" type="curve" smooth="yes"/>
      <point x="85.3428" y="203.343"/>
      <point x="81" y="188.53"/>
      <point x="81" y="171" type="curve" smooth="yes"/>
      <point x="81" y="132" type="line" smooth="yes"/>
      <point x="81.9697" y="63.6162"/>
      <point x="141.574" y="39"/>
      <point x="196" y="39" type="curve"/>
      <point x="196" y="1" type="line"/>
      <point x="99" y="1"/>
      <point x="40" y="64"/>
    </contour>
    <contour>
      <point x="47" y="389" type="line"/>
      <point x="46" y="463"/>
      <point x="123" y="519"/>
      <point x="196" y="519" type="curve"/>
      <point x="196" y="481" type="line"/>
      <point x="141" y="481"/>
      <point x="84" y="438"/>
      <point x="84" y="375" type="curve"/>
    </contour>
  </outline>
</glyph>
<glyph name="b" format="1">
  <advance width="428"/>
  <unicode hex="0062"/>
  <outline>
    <contour>
      <point x="40" y="0" type="line"/>
      <point x="40" y="699" type="line"/>
      <point x="80" y="699" type="line"/>
      <point x="80" y="0" type="line"/>
    </contour>
    <contour>
      <point x="125" y="0" type="line"/>
      <point x="125" y="38" type="line"/>
      <point x="243" y="38" type="line" smooth="yes"/>
      <point x="291" y="38"/>
      <point x="358" y="86"/>
      <point x="358" y="143" type="curve"/>
      <point x="358" y="373" type="line"/>
      <point x="358" y="426"/>
      <point x="298" y="478"/>
      <point x="243" y="478" type="curve" smooth="yes"/>
      <point x="125" y="478" type="line"/>
      <point x="125" y="516" type="line"/>
      <point x="244" y="516" type="line" smooth="yes"/>
      <point x="326" y="516"/>
      <point x="398" y="446"/>
      <point x="398" y="377" type="curve"/>
      <point x="398" y="141" type="line" smooth="yes"/>
      <point x="398" y="92"/>
      <point x="347" y="0"/>
      <point x="241" y="0" type="curve" smooth="yes"/>
    </contour>
  </outline>
</glyph>
<glyph name="e" format="1">
  <advance width="452"/>
  <unicode hex="0065"/>
  <outline>
    <contour>
      <point x="40" y="141" type="curve" smooth="yes"/>
      <point x="40" y="377" type="line"/>
      <point x="41" y="425"/>
      <point x="96" y="516"/>
      <point x="203" y="516" type="curve"/>
      <point x="203" y="478" type="line"/>
      <point x="131" y="478"/>
      <point x="80" y="410"/>
      <point x="80" y="369" type="curve" smooth="yes"/>
      <point x="80" y="285" type="line"/>
      <point x="371" y="285" type="line"/>
      <point x="371" y="369" type="line" smooth="yes"/>
      <point x="371" y="428"/>
      <point x="309" y="480"/>
      <point x="248" y="480" type="curve"/>
      <point x="248" y="516" type="line"/>
      <point x="324" y="516"/>
      <point x="411" y="453"/>
      <point x="411" y="378" type="curve" smooth="yes"/>
      <point x="411" y="247" type="line"/>
      <point x="80" y="247" type="line"/>
      <point x="80" y="141" type="line" smooth="yes"/>
      <point x="80" y="105"/>
      <point x="137" y="38"/>
      <point x="204" y="38" type="curve"/>
      <point x="204" y="0" type="line"/>
      <point x="97" y="0"/>
      <point x="40" y="93"/>
    </contour>
    <contour>
      <point x="248" y="0" type="curve"/>
      <point x="248" y="41" type="line"/>
      <point x="319" y="41"/>
      <point x="364" y="98"/>
      <point x="373" y="134" type="curve"/>
      <point x="412" y="120" type="line"/>
      <point x="393" y="56"/>
      <point x="336" y="0"/>
    </contour>
  </outline>
</glyph>
<glyph name="j" format="1">
  <advance width="174"/>
  <unicode hex="006A"/>
  <outline>
    <contour>
      <point x="85" y="516" type="line"/>
      <point x="125" y="516" type="line"/>
      <point x="125" y="-35" type="line" smooth="yes"/>
      <point x="125" y="-82"/>
      <point x="77" y="-181"/>
      <point x="-25" y="-181" type="curve" smooth="yes"/>
      <point x="-42" y="-181" type="line"/>
      <point x="-33" y="-143" type="line"/>
      <point x="-22" y="-143" type="line"/>
      <point x="33" y="-140"/>
      <point x="85" y="-85"/>
      <point x="85" y="-35" type="curve" smooth="yes"/>
    </contour>
    <contour>
      <point x="79" y="583" type="curve" smooth="yes"/>
      <point x="79" y="598"/>
      <point x="92" y="610"/>
      <point x="107" y="610" type="curve" smooth="yes"/>
      <point x="122" y="610"/>
      <point x="134" y="598"/>
      <point x="134" y="583" type="curve" smooth="yes"/>
      <point x="134" y="568"/>
      <point x="122" y="556"/>
      <point x="107" y="556" type="curve" smooth="yes"/>
      <point x="92" y="556"/>
      <point x="79" y="568"/>
    </contour>
  </outline>
</glyph>
<glyph name="u" format="1">
  <advance width="450"/>
  <unicode hex="0075"/>
  <outline>
    <contour>
      <point x="38" y="137" type="curve" smooth="yes"/>
      <point x="38" y="514" type="line"/>
      <point x="78" y="514" type="line"/>
      <point x="78" y="142" type="line" smooth="yes"/>
      <point x="78" y="96"/>
      <point x="134" y="35"/>
      <point x="204" y="35" type="curve"/>
      <point x="204" y="-5" type="line"/>
      <point x="91" y="-5"/>
      <point x="38" y="86"/>
    </contour>
    <contour>
      <point x="246" y="-5" type="curve"/>
      <point x="246" y="35" type="line"/>
      <point x="318" y="35"/>
      <point x="372" y="94"/>
      <point x="372" y="142" type="curve" smooth="yes"/>
      <point x="372" y="514" type="line"/>
      <point x="412" y="514" type="line"/>
      <point x="412" y="137" type="line" smooth="yes"/>
      <point x="412" y="89"/>
      <point x="358" y="-5"/>
    </contour>
  </outline>
</glyph>
<glyph name="asciitilde" format="1">
  <advance width="628"/>
  <unicode hex="007E"/>
  <outline>
    <contour>
      <point x="80" y="320" type="curve"/>
      <point x="80" y="358" type="line"/>
      <point x="125" y="384"/>
      <point x="162" y="393"/>
      <point x="193" y="393" type="curve" smooth="yes"/>
      <point x="280" y="393"/>
      <point x="329" y="320"/>
      <point x="417" y="320" type="curve" smooth="yes"/>
      <point x="452" y="320"/>
      <point x="494" y="332"/>
      <point x="548" y="365" type="curve"/>
      <point x="548" y="329" type="line"/>
      <point x="492" y="295"/>
      <point x="448" y="283"/>
      <point x="411" y="283" type="curve" smooth="yes"/>
      <point x="319" y="283"/>
      <point x="269" y="356"/>
      <point x="187" y="356" type="curve" smooth="yes"/>
      <point x="157" y="356"/>
      <point x="122" y="347"/>
    </contour>
  </outline>
</glyph>
<glyph name="currency" format="1">
  <advance width="598"/>
  <unicode hex="00A4"/>
  <outline>
    <contour>
      <point x="40" y="164" type="line"/>
      <point x="119" y="236" type="line"/>
      <point x="113" y="250"/>
      <point x="111" y="263"/>
      <point x="111" y="274" type="curve" smooth="yes"/>
      <point x="111" y="456" type="line" smooth="yes"/>
      <point x="111" y="467"/>
      <point x="114" y="481"/>
      <point x="120" y="495" type="curve"/>
      <point x="40" y="567" type="line"/>
      <point x="65" y="596" type="line"/>
      <point x="139" y="530" type="line"/>
      <point x="165" y="565"/>
      <point x="211" y="596"/>
      <point x="275" y="596" type="curve"/>
      <point x="275" y="558" type="line"/>
      <point x="195" y="558"/>
      <point x="151" y="490"/>
      <point x="151" y="443" type="curve" smooth="yes"/>
      <point x="151" y="287" type="line" smooth="yes"/>
      <point x="151" y="244"/>
      <point x="202" y="170"/>
      <point x="275" y="170" type="curve"/>
      <point x="275" y="132" type="line"/>
      <point x="210" y="132"/>
      <point x="165" y="165"/>
      <point x="139" y="201" type="curve"/>
      <point x="65" y="135" type="line"/>
    </contour>
    <contour>
      <point x="316" y="132" type="curve"/>
      <point x="316" y="170" type="line"/>
      <point x="391" y="170"/>
      <point x="435" y="241"/>
      <point x="435" y="285" type="curve" smooth="yes"/>
      <point x="435" y="443" type="line" smooth="yes"/>
      <point x="435" y="488"/>
      <point x="391" y="558"/>
      <point x="316" y="558" type="curve"/>
      <point x="316" y="596" type="line"/>
      <point x="379" y="596"/>
      <point x="423" y="565"/>
      <point x="448" y="529" type="curve"/>
      <point x="523" y="596" type="line"/>
      <point x="548" y="567" type="line"/>
      <point x="467" y="494" type="line"/>
      <point x="472" y="480"/>
      <point x="475" y="467"/>
      <point x="475" y="456" type="curve" smooth="yes"/>
      <point x="475" y="274" type="line" smooth="yes"/>
      <point x="475" y="263"/>
      <point x="472" y="250"/>
      <point x="467" y="236" type="curve"/>
      <point x="548" y="164" type="line"/>
      <point x="522" y="135" type="line"/>
      <point x="448" y="201" type="line"/>
      <point x="423" y="165"/>
      <point x="379" y="132"/>
    </contour>
  </outline>
</glyph>
<glyph name="degree" format="1">
  <advance width="209"/>
  <unicode hex="00B0"/>
  <outline>
    <contour>
      <point x="35" y="583" type="curve" smooth="yes"/>
      <point x="35" y="621"/>
      <point x="66" y="652"/>
      <point x="104" y="652" type="curve" smooth="yes"/>
      <point x="142" y="652"/>
      <point x="174" y="621"/>
      <point x="174" y="583" type="curve" smooth="yes"/>
      <point x="174" y="545"/>
      <point x="142" y="514"/>
      <point x="104" y="514" type="curve" smooth="yes"/>
      <point x="66" y="514"/>
      <point x="35" y="545"/>
    </contour>
    <contour>
      <point x="66" y="583" type="curve" smooth="yes"/>
      <point x="66" y="562"/>
      <point x="83" y="545"/>
      <point x="104" y="545" type="curve" smooth="yes"/>
      <point x="126" y="545"/>
      <point x="143" y="562"/>
      <point x="143" y="583" type="curve" smooth="yes"/>
      <point x="143" y="605"/>
      <point x="126" y="622"/>
      <point x="104" y="622" type="curve" smooth="yes"/>
      <point x="83" y="622"/>
      <point x="66" y="605"/>
    </contour>
  </outline>
</glyph>
<glyph name="threesuperior" format="1">
  <advance width="225"/>
  <unicode hex="00B3"/>
  <outline>
    <contour>
      <point x="117.081" y="387.32" type="curve"/>
      <point x="117.081" y="413.28" type="line"/>
      <point x="143.154" y="413.28"/>
      <point x="178.133" y="431.512"/>
      <point x="178.133" y="473.829" type="curve" smooth="yes"/>
      <point x="178.133" y="499.188"/>
      <point x="158.464" y="530.601"/>
      <point x="114.981" y="530.601" type="curve"/>
      <point x="114.981" y="555.72" type="line"/>
      <point x="158.464" y="555.72"/>
      <point x="178.133" y="589.133"/>
      <point x="178.133" y="614.491" type="curve" smooth="yes"/>
      <point x="178.133" y="656.809"/>
      <point x="143.154" y="674.04"/>
      <point x="117.081" y="674.04" type="curve"/>
      <point x="117.081" y="700" type="line"/>
      <point x="171.761" y="699.916"/>
      <point x="204.617" y="659.104"/>
      <point x="204.617" y="615.42" type="curve" smooth="yes"/>
      <point x="204.617" y="587.786"/>
      <point x="197.261" y="560.8"/>
      <point x="171.104" y="543.16" type="curve"/>
      <point x="197.261" y="525.521"/>
      <point x="204.617" y="500.534"/>
      <point x="204.617" y="472.9" type="curve" smooth="yes"/>
      <point x="204.617" y="429.216"/>
      <point x="171.761" y="387.404"/>
    </contour>
    <contour>
      <point x="20.0625" y="462.92" type="curve"/>
      <point x="45.0244" y="468.32" type="line"/>
      <point x="53.0244" y="415.32"/>
      <point x="93.9814" y="413.28"/>
      <point x="93.9814" y="413.28" type="curve"/>
      <point x="93.9814" y="387.32" type="line"/>
      <point x="49.4619" y="391.101"/>
      <point x="23.8418" y="427.641"/>
    </contour>
    <contour>
      <point x="20.0381" y="624.4" type="line"/>
      <point x="23.8174" y="659.68"/>
      <point x="49.4375" y="696.22"/>
      <point x="93.957" y="700" type="curve"/>
      <point x="93.957" y="674.04" type="line"/>
      <point x="93.957" y="674.04"/>
      <point x="53" y="672"/>
      <point x="45" y="619" type="curve"/>
    </contour>
  </outline>
</glyph>
<glyph name="onesuperior" format="1">
  <advance width="102"/>
  <unicode hex="00B9"/>
  <outline>
    <contour>
      <point x="8.90039" y="665.025" type="line"/>
      <point x="8.90039" y="684.375" type="line"/>
      <point x="26.9004" y="699.225" type="line"/>
      <point x="52.9004" y="699.225" type="line"/>
      <point x="52.9004" y="386.225" type="line"/>
      <point x="26.9004" y="386.225" type="line"/>
      <point x="26.9004" y="665.025" type="line"/>
    </contour>
  </outline>
</glyph>
<glyph name="ordmasculine" format="1">
  <advance width="230"/>
  <unicode hex="00BA"/>
  <outline>
    <contour>
      <point x="26" y="413" type="line"/>
      <point x="26" y="432" type="line"/>
      <point x="204" y="432" type="line"/>
      <point x="204" y="413" type="line"/>
    </contour>
    <component base="o" xScale="0.443625" yScale="0.443625" xOffset="21" yOffset="471"/>
  </outline>
</glyph>
<glyph name="guillemotright" format="1">
  <advance width="457"/>
  <unicode hex="00BB"/>
  <outline>
    <contour>
      <point x="15" y="144" type="line"/>
      <point x="15" y="184" type="line"/>
      <point x="191" y="292" type="line"/>
      <point x="15" y="394" type="line"/>
      <point x="15" y="434" type="line"/>
      <point x="226" y="309" type="line"/>
      <point x="226" y="271" type="line"/>
    </contour>
    <contour>
      <point x="226" y="144" type="line"/>
      <point x="226" y="184" type="line"/>
      <point x="402" y="292" type="line"/>
      <point x="226" y="394" type="line"/>
      <point x="226" y="434" type="line"/>
      <point x="437" y="309" type="line"/>
      <point x="437" y="271" type="line"/>
    </contour>
  </outline>
</glyph>
<glyph name="divide" format="1">
  <advance width="650"/>
  <unicode hex="00F7"/>
  <outline>
    <contour>
      <point x="100" y="273" type="line"/>
      <point x="100" y="311" type="line"/>
      <point x="550" y="311" type="line"/>
      <point x="550" y="273" type="line"/>
    </contour>
    <component base="period" xOffset="255" yOffset="376"/>
    <component base="period" xOffset="255" yOffset="139"/>
  </outline>
</glyph>
<glyph name="caron" format="1">
  <advance width="270"/>
  <unicode hex="02C7"/>
  <outline>
    <contour>
      <point x="43" y="666" type="line"/>
      <point x="79" y="666" type="line"/>
      <point x="135" y="553" type="line"/>
      <point x="190" y="666" type="line"/>
      <point x="226" y="666" type="line"/>
      <point x="151" y="514" type="line"/>
      <point x="119" y="514" type="line"/>
    </contour>
  </outline>
</glyph>
<glyph name="ogonek" format="1">
  <advance width="219"/>
  <unicode hex="02DB"/>
  <outline>
    <contour>
      <point x="106" y="-172" type="line"/>
      <point x="5" y="-172"/>
      <point x="-35" y="-96"/>
      <point x="-35" y="-40" type="curve"/>
      <point x="5" y="-40" type="line"/>
      <point x="5" y="-95"/>
      <point x="47" y="-134"/>
      <point x="106" y="-134" type="curve"/>
    </contour>
  </outline>
</glyph>
<glyph name="guilsinglleft" format="1">
  <advance width="338"/>
  <unicode hex="2039"/>
  <outline>
    <contour>
      <point x="76" y="292" type="line"/>
      <point x="207" y="500" type="line"/>
      <point x="257" y="500" type="line"/>
      <point x="126" y="292" type="line"/>
      <point x="257" y="79" type="line"/>
      <point x="207" y="79" type="line"/>
    </contour>
  </outline>
</glyph>
<glyph name="trademark" format="1">
  <advance width="463"/>
  <unicode hex="2122"/>
  <outline>
    <contour>
      <point x="25.5898" y="678.572" type="line"/>
      <point x="25.5898" y="699.2" type="line"/>
      <point x="158.088" y="699.2" type="line"/>
      <point x="158.088" y="678.572" type="line"/>
      <point x="102.806" y="678.572" type="line"/>
      <point x="102.806" y="485" type="line"/>
      <point x="80.5664" y="485" type="line"/>
      <point x="80.5664" y="678.572" type="line"/>
    </contour>
    <contour>
      <point x="180" y="485" type="line"/>
      <point x="180" y="644" type="line"/>
      <point x="185" y="644" type="line"/>
      <point x="202.092" y="603.905" type="line"/>
      <point x="202.144" y="485" type="line"/>
    </contour>
    <contour>
      <point x="180.852" y="692.468" type="line"/>
      <point x="180.852" y="699.2" type="line"/>
      <point x="202.174" y="699.2" type="line"/>
      <point x="272.958" y="527.054" type="line"/>
      <point x="335" y="663" type="line"/>
      <point x="342" y="663" type="line"/>
      <point x="342" y="629" type="line"/>
      <point x="278.772" y="485" type="line"/>
      <point x="267.144" y="485" type="line"/>
    </contour>
    <contour>
      <point x="354.772" y="485" type="line"/>
      <point x="354.772" y="699.2" type="line"/>
      <point x="377.013" y="699.2" type="line"/>
      <point x="377.013" y="485" type="line"/>
    </contour>
  </outline>
</glyph>
<glyph name="infinity" format="1">
  <advance width="798"/>
  <unicode hex="221E"/>
  <outline>
    <contour>
      <point x="235" y="-1" type="curve"/>
      <point x="235" y="37" type="line"/>
      <point x="266.938" y="37"/>
      <point x="304" y="56"/>
      <point x="318" y="94" type="curve" smooth="yes"/>
      <point x="380.811" y="257.5" type="line"/>
      <point x="318" y="421" type="line" smooth="yes"/>
      <point x="304" y="459"/>
      <point x="266.938" y="478"/>
      <point x="235" y="478" type="curve"/>
      <point x="235" y="516" type="line"/>
      <point x="285.404" y="516"/>
      <point x="336.354" y="482.862"/>
      <point x="354" y="436" type="curve" smooth="yes"/>
      <point x="401.692" y="311.855" type="line"/>
      <point x="449" y="435" type="line" smooth="yes"/>
      <point x="466.646" y="481.862"/>
      <point x="517.596" y="515"/>
      <point x="568" y="515" type="curve"/>
      <point x="568" y="477" type="line"/>
      <point x="536.062" y="477"/>
      <point x="499" y="458"/>
      <point x="485" y="420" type="curve" smooth="yes"/>
      <point x="422.573" y="257.5" type="line"/>
      <point x="485" y="95" type="line" smooth="yes"/>
      <point x="499" y="57"/>
      <point x="536.063" y="38"/>
      <point x="568" y="38" type="curve"/>
      <point x="568" y="0" type="line"/>
      <point x="517.596" y="0"/>
      <point x="466.646" y="33.1377"/>
      <point x="449" y="80" type="curve" smooth="yes"/>
      <point x="401.692" y="203.145" type="line"/>
      <point x="354" y="79" type="line" smooth="yes"/>
      <point x="336.354" y="32.1377"/>
      <point x="285.404" y="-1"/>
    </contour>
    <contour>
      <point x="194" y="-1" type="line"/>
      <point x="82" y="-1"/>
      <point x="30" y="93"/>
      <point x="30" y="141" type="curve" smooth="yes"/>
      <point x="30" y="376" type="line" smooth="yes"/>
      <point x="30" y="425"/>
      <point x="84" y="516"/>
      <point x="194" y="516" type="curve"/>
      <point x="194" y="478" type="line"/>
      <point x="114" y="478"/>
      <point x="70" y="410"/>
      <point x="70" y="363" type="curve" smooth="yes"/>
      <point x="70" y="154" type="line" smooth="yes"/>
      <point x="70" y="111"/>
      <point x="121" y="37"/>
      <point x="194" y="37" type="curve"/>
    </contour>
    <contour>
      <point x="609" y="-2" type="curve"/>
      <point x="609" y="36" type="line"/>
      <point x="682" y="36"/>
      <point x="733" y="110"/>
      <point x="733" y="153" type="curve" smooth="yes"/>
      <point x="733" y="362" type="line" smooth="yes"/>
      <point x="733" y="409"/>
      <point x="689" y="477"/>
      <point x="609" y="477" type="curve"/>
      <point x="609" y="515" type="line"/>
      <point x="719" y="515"/>
      <point x="773" y="424"/>
      <point x="773" y="375" type="curve" smooth="yes"/>
      <point x="773" y="140" type="line" smooth="yes"/>
      <point x="773" y="92"/>
      <point x="721" y="-2"/>
    </contour>
  </outline>
</glyph>
<glyph name="lessequal" format="1">
  <advance width="414"/>
  <unicode hex="2264"/>
  <outline>
    <contour>
      <point x="370" y="145" type="line"/>
      <point x="16" y="342" type="line"/>
      <point x="16" y="374" type="line"/>
      <point x="370" y="566" type="line"/>
      <point x="370" y="526" type="line"/>
      <point x="62" y="358" type="line"/>
      <point x="370" y="185" type="line"/>
    </contour>
    <contour>
      <point x="27" y="53" type="line"/>
      <point x="27" y="91" type="line"/>
      <point x="384" y="91" type="line"/>
      <point x="384" y="53" type="line"/>
    </contour>
  </outline>
</glyph>
<glyph name="greaterequal" format="1">
  <advance width="414"/>
  <unicode hex="2265"/>
  <outline>
    <contour>
      <point x="30" y="145" type="line"/>
      <point x="30" y="185" type="line"/>
      <point x="338" y="358" type="line"/>
      <point x="30" y="526" type="line"/>
      <point x="30" y="566" type="line"/>
      <point x="384" y="374" type="line"/>
      <point x="384" y="342" type="line"/>
    </contour>
    <contour>
      <point x="27" y="53" type="line"/>
      <point x="27" y="91" type="line"/>
      <point x="384" y="91" type="line"/>
      <point x="384" y="53" type="line"/>
    </contour>
  </outline>
</glyph>
